<?xml version="1.0" standalone="no"?>
<!DOCTYPE svg PUBLIC "-//W3C//DTD SVG 20010904//EN"
 "http://www.w3.org/TR/2001/REC-SVG-20010904/DTD/svg10.dtd">
<svg version="1.0" xmlns="http://www.w3.org/2000/svg"
 width="460.000000pt" height="460.000000pt" viewBox="0 0 460.000000 460.000000"
 preserveAspectRatio="xMidYMid meet">
<metadata>
Created by potrace 1.14, written by Peter Selinger 2001-2017
</metadata>
<g transform="translate(0.000000,460.000000) scale(0.100000,-0.100000)"
fill="#000000" stroke="none">
<path d="M2194 4411 c3 -5 15 -7 26 -4 28 7 25 13 -6 13 -14 0 -23 -4 -20 -9z"/>
<path d="M2258 4413 c7 -3 16 -2 19 1 4 3 -2 6 -13 5 -11 0 -14 -3 -6 -6z"/>
<path d="M1905 4380 c-16 -7 -17 -9 -3 -9 9 -1 20 4 23 9 7 11 7 11 -20 0z"/>
<path d="M2106 4366 c10 -8 21 -12 24 -10 5 6 -21 24 -34 24 -6 0 -1 -6 10
-14z"/>
<path d="M2520 4370 c0 -5 7 -10 15 -10 8 0 15 5 15 10 0 6 -7 10 -15 10 -8 0
-15 -4 -15 -10z"/>
<path d="M1928 4343 c7 -3 16 -2 19 1 4 3 -2 6 -13 5 -11 0 -14 -3 -6 -6z"/>
<path d="M2628 4343 c7 -3 16 -2 19 1 4 3 -2 6 -13 5 -11 0 -14 -3 -6 -6z"/>
<path d="M2715 4289 c-9 -13 -8 -13 33 -27 38 -13 40 -10 10 18 -25 23 -34 25
-43 9z"/>
<path d="M2806 4255 c4 -8 12 -15 20 -15 20 0 17 7 -6 20 -16 9 -18 8 -14 -5z"/>
<path d="M1715 4230 c3 -5 11 -10 16 -10 6 0 7 5 4 10 -3 6 -11 10 -16 10 -6
0 -7 -4 -4 -10z"/>
<path d="M2860 4230 c8 -5 20 -10 25 -10 6 0 3 5 -5 10 -8 5 -19 10 -25 10 -5
0 -3 -5 5 -10z"/>
<path d="M2790 4220 l-25 -8 28 -1 c33 -1 77 -28 77 -47 0 -8 5 -14 11 -14 6
0 8 9 4 20 -3 11 -3 20 0 20 10 0 38 -30 28 -30 -4 -1 3 -9 15 -20 13 -11 25
-25 26 -32 7 -31 20 -49 32 -44 7 3 16 1 19 -3 3 -5 13 -7 24 -4 11 3 21 -2
25 -13 5 -14 4 -15 -9 -4 -24 20 -17 -2 11 -35 24 -29 25 -29 18 -5 -6 24 -5
24 12 8 11 -11 18 -33 19 -57 1 -50 6 -54 56 -57 37 -2 39 0 26 15 -8 9 -12
22 -9 30 3 9 0 11 -7 6 -8 -4 -14 0 -17 12 -3 10 -15 23 -27 28 -12 6 -23 20
-25 33 -2 14 -8 20 -15 15 -9 -5 -9 -3 0 8 9 11 5 21 -18 47 -16 18 -35 32
-42 31 -28 -3 -47 2 -47 14 0 7 -10 18 -21 26 -17 10 -19 15 -9 21 9 6 -1 12
-31 20 -24 7 -54 16 -67 21 -26 10 -27 10 -62 -1z m220 -130 c0 -5 -2 -10 -4
-10 -3 0 -8 5 -11 10 -3 6 -1 10 4 10 6 0 11 -4 11 -10z m25 -10 c3 -5 1 -10
-4 -10 -6 0 -11 5 -11 10 0 6 2 10 4 10 3 0 8 -4 11 -10z"/>
<path d="M2890 4136 c0 -2 7 -9 15 -16 13 -11 14 -10 9 4 -5 14 -24 23 -24 12z"/>
<path d="M3165 3880 c-3 -5 4 -18 17 -29 23 -22 38 -20 20 2 -7 8 -9 16 -6 19
2 3 -2 8 -10 11 -9 4 -18 2 -21 -3z"/>
<path d="M3138 3832 c-4 -15 -1 -18 19 -14 13 2 23 5 21 6 -2 1 -10 7 -19 14
-14 10 -17 9 -21 -6z"/>
<path d="M3155 3800 c3 -5 11 -10 16 -10 6 0 7 5 4 10 -3 6 -11 10 -16 10 -6
0 -7 -4 -4 -10z"/>
<path d="M1187 3558 c-4 -46 -5 -96 -3 -113 19 -176 28 -306 23 -312 -4 -3
-19 -1 -33 6 l-26 12 4 -88 c3 -62 11 -103 28 -141 12 -29 25 -51 27 -49 8 8
18 206 17 342 0 86 -5 155 -13 178 -8 22 -12 81 -12 142 1 58 0 105 -3 105 -2
0 -6 -37 -9 -82z"/>
<path d="M2150 3387 c-6 -11 -18 -16 -26 -13 -17 7 -64 -38 -60 -57 2 -7 7
-21 11 -31 6 -13 4 -21 -3 -24 -7 -2 -4 -11 8 -25 11 -11 20 -35 20 -51 0 -34
12 -58 26 -55 21 4 35 -2 29 -11 -3 -5 4 -10 15 -10 18 0 21 -4 16 -24 -6 -23
-2 -25 65 -40 80 -18 169 -21 169 -6 0 6 -12 10 -26 10 -14 0 -23 4 -19 10 3
6 -1 10 -11 10 -9 0 -25 9 -35 21 -10 11 -22 18 -27 15 -5 -3 -12 3 -15 14 -3
12 -14 20 -26 20 -26 0 -27 16 -2 30 26 14 42 13 40 -2 -4 -34 2 -38 54 -38
66 0 99 9 90 24 -4 7 -1 6 9 -1 8 -7 37 -15 64 -18 27 -4 61 -8 76 -10 22 -3
26 -1 25 16 -2 31 -125 87 -213 98 -51 6 -79 15 -98 32 -14 12 -26 26 -26 30
0 14 113 38 213 45 46 3 66 1 62 -6 -7 -12 6 -13 32 -3 16 6 15 8 -7 13 -14 4
-24 11 -23 17 1 6 -20 13 -48 16 -27 3 -55 10 -62 14 -6 4 -73 8 -149 8 -121
0 -138 -2 -148 -18z m203 -164 c-7 -2 -19 -2 -25 0 -7 3 -2 5 12 5 14 0 19 -2
13 -5z"/>
<path d="M3077 3360 c-3 -10 -1 -20 4 -22 4 -2 9 -27 11 -55 2 -29 6 -53 11
-53 4 0 7 7 7 15 0 8 6 15 13 15 8 0 14 12 14 29 0 17 -5 29 -10 28 -6 -1 -15
13 -20 31 -11 36 -22 41 -30 12z"/>
<path d="M1367 3347 c-10 -10 -33 -29 -50 -41 -30 -21 -46 -46 -29 -46 10 0 9
-106 0 -116 -17 -17 -6 -44 31 -73 21 -17 47 -31 57 -31 11 0 37 -7 59 -15 22
-8 58 -14 80 -15 38 -1 39 -1 20 -16 -19 -14 -18 -15 20 -9 22 3 66 11 98 17
51 10 60 9 78 -8 13 -12 19 -27 16 -41 -6 -32 2 -29 40 14 35 39 63 114 63
167 0 49 -19 104 -38 110 -9 3 -38 26 -63 50 -60 58 -135 78 -269 74 -77 -2
-98 -6 -113 -21z m33 -91 c0 -3 -4 -8 -10 -11 -5 -3 -10 -1 -10 4 0 6 5 11 10
11 6 0 10 -2 10 -4z m78 -8 c13 1 21 -2 18 -7 -3 -5 10 -9 30 -9 19 0 38 -3
42 -6 3 -4 -7 -6 -24 -5 -16 1 -44 -1 -62 -5 -21 -4 -42 -1 -60 8 -15 9 -21
15 -14 16 7 0 10 5 6 11 -4 8 1 9 17 3 13 -4 34 -7 47 -6z m159 -104 c-3 -3
-12 -4 -19 -1 -8 3 -5 6 6 6 11 1 17 -2 13 -5z m-7 -73 c0 -5 -21 -6 -47 -4
-71 7 -75 11 -10 12 31 1 57 -3 57 -8z"/>
<path d="M3205 3339 c6 -47 26 -66 38 -35 9 23 -3 54 -23 59 -16 4 -18 0 -15
-24z"/>
<path d="M3045 3321 c-3 -5 -1 -12 5 -16 5 -3 10 1 10 9 0 18 -6 21 -15 7z"/>
<path d="M3150 3290 c0 -3 4 -10 8 -17 6 -9 11 -8 19 5 9 15 7 18 -8 18 -11 0
-19 -3 -19 -6z"/>
<path d="M3062 3270 c0 -14 2 -19 5 -12 2 6 2 18 0 25 -3 6 -5 1 -5 -13z"/>
<path d="M3330 3245 c-7 -8 -8 -15 -3 -15 14 0 66 -51 81 -80 11 -23 12 -20 9
27 -2 29 -10 59 -17 68 -16 19 -54 19 -70 0z"/>
<path d="M3190 3019 c-13 -47 -12 -50 17 -43 28 8 36 57 11 73 -15 9 -19 6
-28 -30z"/>
<path d="M1750 2810 c0 -5 5 -10 10 -10 6 0 10 5 10 10 0 6 -4 10 -10 10 -5 0
-10 -4 -10 -10z"/>
<path d="M3339 2803 c-13 -16 -12 -17 4 -4 16 13 21 21 13 21 -2 0 -10 -8 -17
-17z"/>
<path d="M1710 2795 c0 -9 6 -12 15 -9 8 4 12 10 9 15 -8 14 -24 10 -24 -6z"/>
<path d="M2270 2749 c0 -7 22 -33 49 -58 41 -39 48 -51 44 -74 -3 -16 -1 -27
6 -27 6 0 11 -7 11 -15 0 -9 9 -15 24 -15 26 0 76 -39 76 -59 0 -6 5 -11 10
-11 16 0 12 17 -17 78 -34 73 -62 106 -128 154 -55 39 -75 46 -75 27z"/>
<path d="M2176 2712 c-9 -40 -32 -50 -134 -63 -41 -6 -84 -16 -96 -25 -20 -13
-26 -13 -52 1 -16 8 -36 15 -45 15 -9 0 -27 9 -41 19 -19 15 -34 18 -67 14
-40 -5 -42 -4 -54 26 -9 24 -16 30 -32 25 -51 -14 -92 -37 -109 -63 -10 -15
-34 -38 -52 -51 -19 -12 -34 -29 -34 -38 0 -11 -3 -12 -13 -3 -8 6 -17 8 -20
4 -4 -3 -17 -2 -30 4 -71 33 -94 39 -90 23 1 -4 -5 -7 -15 -6 -19 1 -22 -26
-11 -114 3 -27 2 -47 -3 -44 -13 8 -9 -4 8 -31 10 -15 12 -25 5 -25 -6 0 -11
-4 -11 -9 0 -14 50 -27 100 -26 l45 0 0 45 c0 25 5 48 11 52 7 4 15 20 18 34
7 28 28 54 44 54 6 0 13 5 15 10 3 6 4 5 3 -2 -2 -7 4 -21 12 -31 11 -13 13
-20 5 -28 -6 -6 -9 -18 -6 -25 3 -8 0 -14 -6 -14 -8 0 -7 -8 3 -22 9 -12 16
-33 16 -45 0 -13 6 -23 15 -23 7 0 18 -6 22 -13 4 -7 29 -26 56 -42 26 -17 50
-38 53 -47 3 -10 12 -18 20 -18 8 0 25 -6 37 -14 12 -7 37 -16 56 -20 31 -5
32 -5 20 12 -8 9 -20 21 -26 25 -24 15 -13 26 31 32 36 6 42 10 33 20 -8 8
-17 9 -27 3 -23 -14 -90 17 -90 42 0 21 16 35 24 22 5 -9 58 -7 128 3 22 3 40
0 44 -6 4 -7 9 -7 13 -2 3 6 28 12 54 15 38 5 50 2 54 -10 5 -12 8 -12 14 5
10 27 59 40 74 20 9 -13 14 -12 34 4 30 24 47 24 68 -1 17 -19 17 -19 31 1 14
21 32 17 32 -6 0 -8 -11 -17 -25 -21 -14 -3 -25 -10 -25 -15 0 -14 6 -12 91
32 73 39 79 44 79 73 0 51 -19 61 -53 28 -28 -27 -30 -27 -200 -33 -95 -3
-246 -4 -337 -2 -91 1 -175 3 -187 3 -18 0 -23 6 -23 28 1 26 20 62 34 62 4 0
5 -4 2 -9 -6 -9 149 -35 162 -27 4 2 34 6 67 7 71 3 102 16 110 47 3 12 10 22
16 22 5 0 15 5 22 10 7 6 34 25 61 43 59 39 90 77 84 103 -3 14 -7 10 -12 -14z
m-542 -97 c-5 -11 -10 -13 -19 -5 -9 8 -14 7 -18 -2 -4 -8 -6 -7 -6 5 -1 12 7
17 24 17 18 0 23 -4 19 -15z"/>
<path d="M3847 2734 c-14 -15 -6 -34 14 -34 14 0 19 5 17 17 -3 18 -20 27 -31
17z"/>
<path d="M3101 2654 c0 -11 3 -14 6 -6 3 7 2 16 -1 19 -3 4 -6 -2 -5 -13z"/>
<path d="M3183 2573 c9 -2 23 -2 30 0 6 3 -1 5 -18 5 -16 0 -22 -2 -12 -5z"/>
<path d="M0 2538 c0 -12 1 -19 3 -17 1 2 9 12 16 22 12 14 11 17 -3 17 -10 0
-16 -8 -16 -22z"/>
<path d="M3122 2480 c0 -14 2 -19 5 -12 2 6 2 18 0 25 -3 6 -5 1 -5 -13z"/>
<path d="M2061 2313 c0 -12 -7 -24 -13 -27 -7 -3 3 -3 22 0 40 6 53 14 22 14
-11 0 -23 8 -25 18 -4 13 -5 12 -6 -5z"/>
<path d="M2156 2321 c-4 -7 -5 -15 -2 -18 9 -9 19 4 14 18 -4 11 -6 11 -12 0z"/>
<path d="M1300 2296 c0 -25 65 -170 102 -227 19 -30 45 -72 58 -94 13 -22 38
-58 55 -80 40 -51 52 -70 37 -61 -15 9 -15 6 3 -38 8 -19 17 -53 20 -75 3 -21
12 -52 20 -67 8 -16 15 -33 15 -39 0 -5 18 -30 40 -53 22 -24 40 -48 40 -52 0
-5 32 -32 70 -61 39 -28 70 -56 70 -60 0 -5 7 -9 15 -9 9 0 21 -11 27 -25 6
-14 18 -25 27 -25 14 0 14 -2 1 -10 -13 -9 -12 -12 5 -26 19 -14 19 -16 2 -25
-9 -6 -15 -15 -12 -20 4 -5 11 -7 16 -4 5 3 6 -1 3 -10 -5 -11 2 -19 25 -28
17 -6 31 -15 31 -19 0 -4 7 -8 15 -8 18 0 20 17 3 22 -7 3 -8 10 -4 17 7 10
10 10 16 1 5 -8 9 -7 13 4 4 9 -1 17 -14 21 -10 4 -19 11 -19 16 0 13 18 11
22 -2 3 -9 14 -8 43 1 33 11 36 14 20 20 -17 6 -18 8 -3 16 20 11 25 67 11
103 -14 36 4 74 49 102 21 13 38 27 38 31 0 5 6 8 13 8 15 0 97 45 202 110 22
13 45 28 50 32 6 5 34 27 63 49 48 37 57 50 53 72 -1 5 3 6 8 2 13 -7 52 26
45 37 -3 5 2 18 12 29 9 10 14 19 10 19 -14 0 -66 -31 -66 -39 0 -11 -127 -59
-180 -67 -25 -4 -48 -12 -52 -18 -10 -15 -266 -14 -294 2 -16 8 -24 8 -32 0
-9 -9 -20 -8 -45 4 -46 22 -144 41 -178 34 -15 -3 -31 -1 -34 5 -4 5 -15 7
-26 4 -11 -4 -19 -2 -19 4 0 6 -12 11 -26 11 -46 0 -111 87 -159 213 -10 26
-22 47 -27 47 -5 0 -8 10 -7 23 4 40 -1 67 -11 67 -14 0 -13 -33 2 -48 9 -9 9
-12 0 -12 -6 0 -15 12 -18 28 -10 40 -24 55 -40 42 -9 -9 -11 -7 -7 8 6 23
-52 71 -60 50 -3 -7 -8 2 -12 20 -8 34 -25 54 -25 28z"/>
<path d="M1940 2270 c0 -5 12 -10 28 -9 24 0 25 1 7 9 -27 12 -35 12 -35 0z"/>
<path d="M1898 2263 c7 -3 16 -2 19 1 4 3 -2 6 -13 5 -11 0 -14 -3 -6 -6z"/>
<path d="M3760 2260 c0 -5 5 -10 11 -10 5 0 7 5 4 10 -3 6 -8 10 -11 10 -2 0
-4 -4 -4 -10z"/>
<path d="M3773 2224 c-36 -18 -40 -35 -19 -85 24 -58 101 -108 138 -88 13 7
23 7 32 0 7 -6 27 -8 44 -5 22 5 38 0 61 -17 26 -19 32 -20 47 -8 24 20 32 50
20 74 -33 63 -100 115 -149 115 -19 0 -54 7 -77 15 -52 18 -57 18 -97 -1z"/>
<path d="M4292 2160 c-68 -16 -67 -43 0 -55 82 -13 91 -12 98 15 12 47 -18 59
-98 40z"/>
<path d="M1878 2095 c-16 -22 -16 -24 2 -40 19 -17 20 -17 20 4 0 13 10 31 22
41 l22 18 -25 0 c-13 0 -32 -10 -41 -23z"/>
<path d="M3103 2085 c0 -22 2 -30 4 -17 2 12 2 30 0 40 -3 9 -5 -1 -4 -23z"/>
<path d="M4550 2074 c0 -8 11 -14 25 -14 14 0 25 4 25 9 0 5 -11 11 -25 13
-17 4 -25 1 -25 -8z"/>
<path d="M3155 2041 l-60 -6 -3 -122 c-2 -116 -1 -124 22 -160 24 -36 25 -42
16 -105 -6 -37 -18 -89 -29 -115 -22 -56 -85 -205 -105 -248 -8 -16 -27 -64
-42 -105 -30 -84 -37 -95 -86 -148 -20 -21 -47 -56 -60 -78 -29 -44 -75 -84
-198 -169 -79 -55 -216 -157 -285 -213 -16 -13 -65 -58 -107 -99 l-77 -74 -6
48 c-38 284 -86 399 -218 515 -49 45 -65 64 -54 66 24 5 21 15 -9 29 -23 11
-25 10 -19 -5 4 -13 0 -11 -16 5 -13 12 -20 26 -15 30 4 4 10 3 14 -2 8 -12
42 -19 42 -9 0 17 -33 42 -48 37 -10 -3 -13 -1 -7 4 11 9 16 43 6 41 -11 -2
-63 22 -91 42 -21 15 -29 31 -33 62 -13 105 -34 160 -62 156 -26 -4 -33 -68
-10 -92 9 -9 12 -16 6 -16 -16 0 -52 53 -46 68 3 8 -1 22 -9 31 -25 28 -36 92
-48 269 -7 94 -15 172 -20 172 -4 0 -33 -34 -64 -76 -32 -41 -69 -81 -83 -89
-14 -7 -53 -40 -86 -73 -53 -52 -65 -59 -103 -60 -24 -1 -58 -8 -75 -16 -120
-54 -247 -105 -272 -111 -16 -4 -37 -13 -46 -21 -15 -14 -208 -84 -232 -84
-19 0 -40 58 -33 90 3 16 1 32 -4 35 -5 3 -8 18 -8 34 1 21 7 31 21 35 14 3
18 11 14 26 -4 17 -2 20 15 14 23 -7 38 9 38 42 0 23 -25 40 -35 24 -3 -5 -19
-11 -36 -15 -28 -6 -29 -8 -12 -21 15 -11 16 -15 4 -23 -9 -6 -24 -6 -38 0
-35 13 -59 11 -76 -5 -8 -8 -24 -12 -35 -9 -26 6 -49 -26 -58 -84 -3 -24 -11
-40 -16 -37 -5 3 -15 1 -22 -5 -10 -8 -19 -6 -37 7 -13 10 -32 21 -41 25 -10
3 -18 15 -18 26 0 11 -4 23 -10 26 -14 9 -12 52 3 59 12 6 -21 3 -98 -9 l-40
-7 29 16 c15 9 32 13 37 10 5 -3 12 2 16 11 7 21 -17 38 -34 24 -8 -7 -18 -7
-32 0 -11 6 -22 11 -25 11 -3 0 -6 -364 -6 -810 l0 -810 973 0 c743 0 976 3
985 12 9 9 12 9 12 0 0 -9 316 -12 1315 -12 l1315 0 0 620 c0 407 -3 620 -10
620 -5 0 -10 -4 -10 -8 0 -4 -22 -30 -48 -58 -27 -27 -51 -56 -54 -64 -4 -13
-8 -13 -32 -1 -19 11 -23 17 -14 23 10 6 10 8 1 8 -9 0 -11 13 -6 43 3 23 7
63 10 89 4 35 10 47 24 51 13 3 19 14 19 31 0 25 -2 26 -40 20 -28 -5 -40 -3
-40 6 0 21 -24 4 -30 -21 -5 -22 -11 -24 -70 -26 -64 -2 -63 7 3 21 17 4 27
13 27 24 0 15 -2 15 -10 2 -9 -13 -10 -13 -10 0 0 8 -7 28 -16 45 -8 16 -13
38 -10 48 6 26 -38 46 -65 29 -10 -7 -25 -12 -33 -12 -8 0 -19 -6 -23 -13 -18
-29 -115 -96 -131 -91 -15 5 -15 4 -2 -5 8 -6 11 -11 6 -11 -5 0 -3 -7 4 -15
10 -12 10 -15 -2 -15 -8 0 -19 5 -26 12 -7 7 -12 8 -12 2 0 -5 33 -27 73 -49
124 -66 142 -77 152 -86 20 -19 -11 -5 -229 110 -125 65 -266 133 -314 151
-63 24 -96 43 -119 69 -18 20 -32 42 -33 48 0 14 -50 43 -77 44 -16 0 -16 1 2
9 11 5 14 9 8 9 -18 1 -16 21 2 21 22 0 19 8 -27 59 -24 26 -50 61 -58 77 -8
16 -31 56 -51 89 -20 33 -40 71 -44 85 -10 34 -35 60 -54 58 -9 -1 -43 -4 -76
-7z m1110 -660 c3 -6 -4 -15 -15 -21 -16 -8 -20 -8 -20 3 0 25 23 36 35 18z
m-2595 -91 c0 -30 -13 -40 -25 -20 -8 13 4 50 16 50 5 0 9 -13 9 -30z m2608
23 c-10 -2 -26 -2 -35 0 -10 3 -2 5 17 5 19 0 27 -2 18 -5z m102 -189 c0 -2
-9 0 -20 6 -11 6 -20 13 -20 16 0 2 9 0 20 -6 11 -6 20 -13 20 -16z m-2610 -4
c0 -5 -2 -10 -4 -10 -3 0 -8 5 -11 10 -3 6 -1 10 4 10 6 0 11 -4 11 -10z
m2667 -20 c23 -11 45 -25 48 -31 4 -6 -16 1 -44 15 -28 15 -51 29 -51 31 0 8
3 7 47 -15z m-2696 -91 c19 -16 20 -18 4 -10 -34 17 -51 31 -39 31 7 0 22 -9
35 -21z m236 -425 c-3 -3 -12 -4 -19 -1 -8 3 -5 6 6 6 11 1 17 -2 13 -5z m-50
-22 c-9 -9 -20 -29 -26 -42 -8 -22 -10 -22 -10 -5 -1 24 25 65 41 65 6 0 4 -8
-5 -18z m56 -7 c4 -8 2 -17 -3 -20 -6 -4 -10 -4 -10 -1 0 2 -3 11 -6 20 -3 9
-2 16 4 16 5 0 12 -7 15 -15z m-50 -19 c-10 -13 -19 -23 -21 -21 -7 6 19 45
29 45 5 0 2 -11 -8 -24z m87 -6 c0 -31 -23 -52 -70 -64 l-25 -7 23 14 c12 7
20 16 17 19 -4 3 -1 9 6 14 8 4 10 3 5 -4 -10 -17 3 -15 20 2 8 8 14 24 14 35
0 12 2 21 5 21 3 0 5 -13 5 -30z m-27 -487 c-7 -2 -19 -2 -25 0 -7 3 -2 5 12
5 14 0 19 -2 13 -5z"/>
<path d="M2658 1913 c7 -3 16 -2 19 1 4 3 -2 6 -13 5 -11 0 -14 -3 -6 -6z"/>
<path d="M103 1653 c9 -2 23 -2 30 0 6 3 -1 5 -18 5 -16 0 -22 -2 -12 -5z"/>
<path d="M168 1643 c7 -3 16 -2 19 1 4 3 -2 6 -13 5 -11 0 -14 -3 -6 -6z"/>
<path d="M160 1620 c0 -5 5 -10 11 -10 5 0 7 5 4 10 -3 6 -8 10 -11 10 -2 0
-4 -4 -4 -10z"/>
<path d="M3988 1373 c7 -3 16 -2 19 1 4 3 -2 6 -13 5 -11 0 -14 -3 -6 -6z"/>
<path d="M1990 1130 c0 -5 7 -10 16 -10 8 0 12 5 9 10 -3 6 -10 10 -16 10 -5
0 -9 -4 -9 -10z"/>
<path d="M1950 1090 c0 -5 5 -10 11 -10 5 0 7 5 4 10 -3 6 -8 10 -11 10 -2 0
-4 -4 -4 -10z"/>
</g>
</svg>
